<svg viewBox="0 0 900 780" xmlns="http://www.w3.org/2000/svg" font-family="'PingFang SC','Microsoft YaHei',sans-serif">

  <defs>
    <marker id="arr-down" markerWidth="8" markerHeight="8" refX="4" refY="6" orient="auto">
      <path d="M2,1 L4,7 L6,1" fill="none" stroke="#475569" stroke-width="1.2"/>
    </marker>
    <linearGradient id="grad-input" x1="0" y1="0" x2="1" y2="0">
      <stop offset="0%" stop-color="#0ea5e9" stop-opacity="0.15"/>
      <stop offset="100%" stop-color="#0ea5e9" stop-opacity="0.04"/>
    </linearGradient>
    <linearGradient id="grad-orchestrate" x1="0" y1="0" x2="1" y2="0">
      <stop offset="0%" stop-color="#8b5cf6" stop-opacity="0.18"/>
      <stop offset="100%" stop-color="#8b5cf6" stop-opacity="0.05"/>
    </linearGradient>
    <linearGradient id="grad-router" x1="0" y1="0" x2="1" y2="0">
      <stop offset="0%" stop-color="#f59e0b" stop-opacity="0.18"/>
      <stop offset="100%" stop-color="#f59e0b" stop-opacity="0.05"/>
    </linearGradient>
    <linearGradient id="grad-space" x1="0" y1="0" x2="1" y2="0">
      <stop offset="0%" stop-color="#22c55e" stop-opacity="0.18"/>
      <stop offset="100%" stop-color="#22c55e" stop-opacity="0.05"/>
    </linearGradient>
    <linearGradient id="grad-skill" x1="0" y1="0" x2="1" y2="0">
      <stop offset="0%" stop-color="#06b6d4" stop-opacity="0.18"/>
      <stop offset="100%" stop-color="#06b6d4" stop-opacity="0.05"/>
    </linearGradient>
    <linearGradient id="grad-retrieve" x1="0" y1="0" x2="1" y2="0">
      <stop offset="0%" stop-color="#3b82f6" stop-opacity="0.18"/>
      <stop offset="100%" stop-color="#3b82f6" stop-opacity="0.05"/>
    </linearGradient>
    <linearGradient id="grad-eval" x1="0" y1="0" x2="1" y2="0">
      <stop offset="0%" stop-color="#f97316" stop-opacity="0.18"/>
      <stop offset="100%" stop-color="#f97316" stop-opacity="0.05"/>
    </linearGradient>
    <linearGradient id="grad-storage" x1="0" y1="0" x2="1" y2="0">
      <stop offset="0%" stop-color="#6366f1" stop-opacity="0.18"/>
      <stop offset="100%" stop-color="#6366f1" stop-opacity="0.05"/>
    </linearGradient>
  </defs>

  <!-- bg -->
  <rect width="900" height="780" fill="#0a0e1a" rx="16"/>

  <!-- title -->
  <text x="450" y="42" text-anchor="middle" font-size="20" font-weight="bold" fill="#e2e8f0">系统总览 · 八层架构</text>
  <text x="450" y="62" text-anchor="middle" font-size="12" fill="#475569">Memory System — Full Stack Architecture</text>
  <line x1="48" y1="74" x2="852" y2="74" stroke="#1e293b" stroke-width="1"/>

  <!-- ── layer 1: 输入层 ── -->
  <rect x="48" y="84" width="804" height="64" rx="10" fill="url(#grad-input)" stroke="#0ea5e9" stroke-width="1.4"/>
  <text x="74" y="107" font-size="11" font-weight="bold" fill="#0ea5e9">L1  输入层</text>
  <text x="74" y="124" font-size="11" fill="#7dd3fc">Input Layer</text>
  <!-- chips -->
  <rect x="180" y="93" width="92" height="26" rx="5" fill="#0c2744" stroke="#0ea5e9" stroke-width="0.8"/>
  <text x="226" y="111" text-anchor="middle" font-size="11" fill="#7dd3fc">文档上传</text>
  <rect x="284" y="93" width="92" height="26" rx="5" fill="#0c2744" stroke="#0ea5e9" stroke-width="0.8"/>
  <text x="330" y="111" text-anchor="middle" font-size="11" fill="#7dd3fc">会话消息</text>
  <rect x="388" y="93" width="92" height="26" rx="5" fill="#0c2744" stroke="#0ea5e9" stroke-width="0.8"/>
  <text x="434" y="111" text-anchor="middle" font-size="11" fill="#7dd3fc">任务指令</text>
  <rect x="492" y="93" width="92" height="26" rx="5" fill="#0c2744" stroke="#0ea5e9" stroke-width="0.8"/>
  <text x="538" y="111" text-anchor="middle" font-size="11" fill="#7dd3fc">行为日志</text>
  <rect x="596" y="93" width="92" height="26" rx="5" fill="#0c2744" stroke="#0ea5e9" stroke-width="0.8"/>
  <text x="642" y="111" text-anchor="middle" font-size="11" fill="#7dd3fc">原始资料</text>

  <!-- arrow 1→2 -->
  <line x1="450" y1="148" x2="450" y2="162" stroke="#334155" stroke-width="1.5" marker-end="url(#arr-down)"/>

  <!-- ── layer 2: 记忆编排层 ── -->
  <rect x="48" y="165" width="804" height="64" rx="10" fill="url(#grad-orchestrate)" stroke="#8b5cf6" stroke-width="1.4"/>
  <text x="74" y="188" font-size="11" font-weight="bold" fill="#a78bfa">L2  记忆编排层</text>
  <text x="74" y="205" font-size="11" fill="#c4b5fd">Memory Orchestration</text>
  <rect x="260" y="174" width="130" height="26" rx="5" fill="#1e1040" stroke="#8b5cf6" stroke-width="0.8"/>
  <text x="325" y="192" text-anchor="middle" font-size="11" fill="#c4b5fd">场景识别</text>
  <rect x="404" y="174" width="130" height="26" rx="5" fill="#1e1040" stroke="#8b5cf6" stroke-width="0.8"/>
  <text x="469" y="192" text-anchor="middle" font-size="11" fill="#c4b5fd">策略选择</text>
  <rect x="548" y="174" width="144" height="26" rx="5" fill="#1e1040" stroke="#8b5cf6" stroke-width="0.8"/>
  <text x="620" y="192" text-anchor="middle" font-size="11" fill="#c4b5fd">QueryPlan 组装</text>

  <!-- arrow 2→3 -->
  <line x1="450" y1="229" x2="450" y2="243" stroke="#334155" stroke-width="1.5" marker-end="url(#arr-down)"/>

  <!-- ── layer 3: 记忆路由层 ── -->
  <rect x="48" y="246" width="804" height="64" rx="10" fill="url(#grad-router)" stroke="#f59e0b" stroke-width="1.4"/>
  <text x="74" y="269" font-size="11" font-weight="bold" fill="#fbbf24">L3  记忆路由层</text>
  <text x="74" y="286" font-size="11" fill="#fde68a">Memory Router</text>
  <rect x="248" y="255" width="124" height="26" rx="5" fill="#1c1205" stroke="#f59e0b" stroke-width="0.8"/>
  <text x="310" y="273" text-anchor="middle" font-size="11" fill="#fde68a">领域识别</text>
  <rect x="386" y="255" width="124" height="26" rx="5" fill="#1c1205" stroke="#f59e0b" stroke-width="0.8"/>
  <text x="448" y="273" text-anchor="middle" font-size="11" fill="#fde68a">空间选择</text>
  <rect x="524" y="255" width="124" height="26" rx="5" fill="#1c1205" stroke="#f59e0b" stroke-width="0.8"/>
  <text x="586" y="273" text-anchor="middle" font-size="11" fill="#fde68a">优先级排序</text>
  <rect x="662" y="255" width="110" height="26" rx="5" fill="#1c1205" stroke="#f59e0b" stroke-width="0.8"/>
  <text x="717" y="273" text-anchor="middle" font-size="11" fill="#fde68a">多空间组合</text>

  <!-- arrow 3→4 -->
  <line x1="450" y1="310" x2="450" y2="324" stroke="#334155" stroke-width="1.5" marker-end="url(#arr-down)"/>

  <!-- ── layer 4: 记忆空间层 ── -->
  <rect x="48" y="327" width="804" height="80" rx="10" fill="url(#grad-space)" stroke="#22c55e" stroke-width="1.4"/>
  <text x="74" y="350" font-size="11" font-weight="bold" fill="#4ade80">L4  记忆空间层</text>
  <text x="74" y="367" font-size="11" fill="#86efac">Memory Spaces</text>
  <!-- space chips row 1 -->
  <rect x="176" y="333" width="88" height="28" rx="5" fill="#0d2e1a" stroke="#22c55e" stroke-width="1"/>
  <text x="220" y="352" text-anchor="middle" font-size="11" fill="#86efac">全局记忆</text>
  <rect x="274" y="333" width="108" height="28" rx="5" fill="#0d2e1a" stroke="#16a34a" stroke-width="1"/>
  <text x="328" y="352" text-anchor="middle" font-size="11" fill="#86efac">小说创作记忆</text>
  <rect x="392" y="333" width="108" height="28" rx="5" fill="#0d2e1a" stroke="#16a34a" stroke-width="1"/>
  <text x="446" y="352" text-anchor="middle" font-size="11" fill="#86efac">导演拍摄记忆</text>
  <rect x="510" y="333" width="108" height="28" rx="5" fill="#0d2e1a" stroke="#16a34a" stroke-width="1"/>
  <text x="564" y="352" text-anchor="middle" font-size="11" fill="#86efac">分镜设计记忆</text>
  <!-- space chips row 2 -->
  <rect x="274" y="369" width="88" height="26" rx="5" fill="#0d2e1a" stroke="#166534" stroke-width="0.8"/>
  <text x="318" y="387" text-anchor="middle" font-size="11" fill="#6ee7b7">项目记忆</text>
  <rect x="374" y="369" width="88" height="26" rx="5" fill="#0d2e1a" stroke="#166534" stroke-width="0.8"/>
  <text x="418" y="387" text-anchor="middle" font-size="11" fill="#6ee7b7">用户记忆</text>
  <rect x="474" y="369" width="88" height="26" rx="5" fill="#0d2e1a" stroke="#166534" stroke-width="0.8"/>
  <text x="518" y="387" text-anchor="middle" font-size="11" fill="#6ee7b7">会话记忆</text>
  <rect x="630" y="333" width="108" height="28" rx="5" fill="#0d2e1a" stroke="#16a34a" stroke-width="1"/>
  <text x="684" y="352" text-anchor="middle" font-size="11" fill="#86efac">角色设定记忆</text>

  <!-- arrow 4→5 -->
  <line x1="450" y1="407" x2="450" y2="421" stroke="#334155" stroke-width="1.5" marker-end="url(#arr-down)"/>

  <!-- ── layer 5: Skill 引擎层 ── -->
  <rect x="48" y="424" width="804" height="64" rx="10" fill="url(#grad-skill)" stroke="#06b6d4" stroke-width="1.4"/>
  <text x="74" y="447" font-size="11" font-weight="bold" fill="#22d3ee">L5  Skill 引擎层</text>
  <text x="74" y="464" font-size="11" fill="#67e8f9">Skill Engine</text>
  <rect x="188" y="433" width="100" height="26" rx="5" fill="#071f2e" stroke="#06b6d4" stroke-width="0.8"/>
  <text x="238" y="451" text-anchor="middle" font-size="11" fill="#67e8f9">问题生成</text>
  <rect x="302" y="433" width="100" height="26" rx="5" fill="#071f2e" stroke="#06b6d4" stroke-width="0.8"/>
  <text x="352" y="451" text-anchor="middle" font-size="11" fill="#67e8f9">问题归一化</text>
  <rect x="416" y="433" width="100" height="26" rx="5" fill="#071f2e" stroke="#06b6d4" stroke-width="0.8"/>
  <text x="466" y="451" text-anchor="middle" font-size="11" fill="#67e8f9">答案总结</text>
  <rect x="530" y="433" width="100" height="26" rx="5" fill="#071f2e" stroke="#06b6d4" stroke-width="0.8"/>
  <text x="580" y="451" text-anchor="middle" font-size="11" fill="#67e8f9">问题扩散</text>
  <rect x="644" y="433" width="100" height="26" rx="5" fill="#071f2e" stroke="#06b6d4" stroke-width="0.8"/>
  <text x="694" y="451" text-anchor="middle" font-size="11" fill="#67e8f9">质量评分</text>

  <!-- arrow 5→6 -->
  <line x1="450" y1="488" x2="450" y2="502" stroke="#334155" stroke-width="1.5" marker-end="url(#arr-down)"/>

  <!-- ── layer 6: 检索与生成层 ── -->
  <rect x="48" y="505" width="804" height="64" rx="10" fill="url(#grad-retrieve)" stroke="#3b82f6" stroke-width="1.4"/>
  <text x="74" y="528" font-size="11" font-weight="bold" fill="#60a5fa">L6  检索与生成层</text>
  <text x="74" y="545" font-size="11" fill="#93c5fd">Retrieval &amp; Generation</text>
  <rect x="248" y="514" width="118" height="26" rx="5" fill="#0c1f3d" stroke="#3b82f6" stroke-width="0.8"/>
  <text x="307" y="532" text-anchor="middle" font-size="11" fill="#93c5fd">命中 → 直接返回</text>
  <rect x="382" y="514" width="140" height="26" rx="5" fill="#0c1f3d" stroke="#3b82f6" stroke-width="0.8"/>
  <text x="452" y="532" text-anchor="middle" font-size="11" fill="#93c5fd">未命中 → 搜索+总结</text>
  <rect x="538" y="514" width="118" height="26" rx="5" fill="#0c1f3d" stroke="#3b82f6" stroke-width="0.8"/>
  <text x="597" y="532" text-anchor="middle" font-size="11" fill="#93c5fd">增量候选回写</text>

  <!-- arrow 6→7 -->
  <line x1="450" y1="569" x2="450" y2="583" stroke="#334155" stroke-width="1.5" marker-end="url(#arr-down)"/>

  <!-- ── layer 7: 评估与治理层 ── -->
  <rect x="48" y="586" width="804" height="64" rx="10" fill="url(#grad-eval)" stroke="#f97316" stroke-width="1.4"/>
  <text x="74" y="609" font-size="11" font-weight="bold" fill="#fb923c">L7  评估与治理层</text>
  <text x="74" y="626" font-size="11" fill="#fdba74">Evaluation &amp; Governance</text>
  <rect x="248" y="595" width="100" height="26" rx="5" fill="#1c0e02" stroke="#f97316" stroke-width="0.8"/>
  <text x="298" y="613" text-anchor="middle" font-size="11" fill="#fdba74">评分筛选</text>
  <rect x="362" y="595" width="100" height="26" rx="5" fill="#1c0e02" stroke="#f97316" stroke-width="0.8"/>
  <text x="412" y="613" text-anchor="middle" font-size="11" fill="#fdba74">去重归并</text>
  <rect x="476" y="595" width="100" height="26" rx="5" fill="#1c0e02" stroke="#f97316" stroke-width="0.8"/>
  <text x="526" y="613" text-anchor="middle" font-size="11" fill="#fdba74">版本管理</text>
  <rect x="590" y="595" width="100" height="26" rx="5" fill="#1c0e02" stroke="#f97316" stroke-width="0.8"/>
  <text x="640" y="613" text-anchor="middle" font-size="11" fill="#fdba74">灰度升级</text>
  <rect x="704" y="595" width="80" height="26" rx="5" fill="#1c0e02" stroke="#f97316" stroke-width="0.8"/>
  <text x="744" y="613" text-anchor="middle" font-size="11" fill="#fdba74">淘汰归档</text>

  <!-- arrow 7→8 -->
  <line x1="450" y1="650" x2="450" y2="664" stroke="#334155" stroke-width="1.5" marker-end="url(#arr-down)"/>

  <!-- ── layer 8: 存储与基础设施层 ── -->
  <rect x="48" y="667" width="804" height="64" rx="10" fill="url(#grad-storage)" stroke="#6366f1" stroke-width="1.4"/>
  <text x="74" y="690" font-size="11" font-weight="bold" fill="#818cf8">L8  存储与基础设施层</text>
  <text x="74" y="707" font-size="11" fill="#a5b4fc">Storage &amp; Infrastructure</text>
  <rect x="212" y="676" width="80" height="26" rx="5" fill="#10102e" stroke="#6366f1" stroke-width="0.8"/>
  <text x="252" y="694" text-anchor="middle" font-size="11" fill="#a5b4fc">问答主库</text>
  <rect x="304" y="676" width="80" height="26" rx="5" fill="#10102e" stroke="#6366f1" stroke-width="0.8"/>
  <text x="344" y="694" text-anchor="middle" font-size="11" fill="#a5b4fc">候选库</text>
  <rect x="396" y="676" width="80" height="26" rx="5" fill="#10102e" stroke="#6366f1" stroke-width="0.8"/>
  <text x="436" y="694" text-anchor="middle" font-size="11" fill="#a5b4fc">向量索引</text>
  <rect x="488" y="676" width="80" height="26" rx="5" fill="#10102e" stroke="#6366f1" stroke-width="0.8"/>
  <text x="528" y="694" text-anchor="middle" font-size="11" fill="#a5b4fc">关系图谱</text>
  <rect x="580" y="676" width="80" height="26" rx="5" fill="#10102e" stroke="#6366f1" stroke-width="0.8"/>
  <text x="620" y="694" text-anchor="middle" font-size="11" fill="#a5b4fc">事件队列</text>
  <rect x="672" y="676" width="80" height="26" rx="5" fill="#10102e" stroke="#6366f1" stroke-width="0.8"/>
  <text x="712" y="694" text-anchor="middle" font-size="11" fill="#a5b4fc">监控日志</text>

  <!-- 右侧纵向标注线 -->
  <line x1="862" y1="84" x2="862" y2="731" stroke="#1e293b" stroke-width="1" stroke-dasharray="3,3"/>
  <text x="874" y="210" font-size="10" fill="#475569" transform="rotate(90,874,210)">在线路径 Online Path</text>
  <text x="874" y="530" font-size="10" fill="#475569" transform="rotate(90,874,530)">离线路径 Offline Path</text>

  <!-- 底部说明 -->
  <text x="450" y="758" text-anchor="middle" font-size="11" fill="#334155">数据流向：L1 输入 → L2 编排 → L3 路由 → L4 空间召回 → L5 Skill 处理 → L6 检索生成 → L7 评估治理 → L8 持久化</text>

</svg>
