<svg viewBox="0 0 1200 900" xmlns="http://www.w3.org/2000/svg" font-family="'PingFang SC', 'Microsoft YaHei', sans-serif">
  <defs>
    <marker id="arr-blue" markerWidth="8" markerHeight="8" refX="6" refY="4" orient="auto">
      <path d="M0,0 L8,4 L0,8 Z" fill="#3b82f6"/>
    </marker>
    <marker id="arr-green" markerWidth="8" markerHeight="8" refX="6" refY="4" orient="auto">
      <path d="M0,0 L8,4 L0,8 Z" fill="#22c55e"/>
    </marker>
    <marker id="arr-purple" markerWidth="8" markerHeight="8" refX="6" refY="4" orient="auto">
      <path d="M0,0 L8,4 L0,8 Z" fill="#a855f7"/>
    </marker>
    <marker id="arr-orange" markerWidth="8" markerHeight="8" refX="6" refY="4" orient="auto">
      <path d="M0,0 L8,4 L0,8 Z" fill="#f97316"/>
    </marker>
    <marker id="arr-cyan" markerWidth="8" markerHeight="8" refX="6" refY="4" orient="auto">
      <path d="M0,0 L8,4 L0,8 Z" fill="#06b6d4"/>
    </marker>
    <marker id="arr-gray" markerWidth="8" markerHeight="8" refX="6" refY="4" orient="auto">
      <path d="M0,0 L8,4 L0,8 Z" fill="#475569"/>
    </marker>
  </defs>

  <!-- Background -->
  <rect width="1200" height="900" fill="#0f1117"/>

  <!-- ===== TITLE ===== -->
  <text x="600" y="40" text-anchor="middle" font-size="22" font-weight="bold" fill="#e2e8f0">§12–13 · 领域记忆协同与 Skill 自迭代机制</text>
  <line x1="40" y1="56" x2="1160" y2="56" stroke="#1e293b" stroke-width="1.5"/>

  <!-- =====================================================
       TOP HALF: 领域记忆协同（小说 + 导演 + 分镜 联合查询）
       ===================================================== -->

  <!-- Section label -->
  <text x="48" y="84" font-size="14" font-weight="bold" fill="#7dd3fc">§12 · 领域记忆协同</text>

  <!-- ── 小说创作记忆 ── -->
  <rect x="48" y="96" width="296" height="272" rx="12" fill="#0f2236" stroke="#3b82f6" stroke-width="1.5"/>
  <rect x="48" y="96" width="296" height="38" rx="12" fill="#3b82f618"/>
  <rect x="48" y="120" width="296" height="14" fill="#0f2236"/>
  <text x="196" y="121" text-anchor="middle" font-size="13" font-weight="bold" fill="#3b82f6">📖 小说创作记忆</text>
  <text x="196" y="136" text-anchor="middle" font-size="11" fill="#475569">novel-writing-memory</text>

  <rect x="72" y="150" width="248" height="28" rx="6" fill="#0c1c2e" stroke="#1e3a5f" stroke-width="1"/>
  <text x="196" y="169" text-anchor="middle" font-size="11" fill="#93c5fd">角色塑造 · 成长弧 · 动机一致性</text>
  <rect x="72" y="186" width="248" height="28" rx="6" fill="#0c1c2e" stroke="#1e3a5f" stroke-width="1"/>
  <text x="196" y="205" text-anchor="middle" font-size="11" fill="#93c5fd">剧情推进 · 冲突设计 · 伏笔回收</text>
  <rect x="72" y="222" width="248" height="28" rx="6" fill="#0c1c2e" stroke="#1e3a5f" stroke-width="1"/>
  <text x="196" y="241" text-anchor="middle" font-size="11" fill="#93c5fd">章节节奏 · 结尾追读钩子</text>
  <rect x="72" y="258" width="248" height="28" rx="6" fill="#0c1c2e" stroke="#1e3a5f" stroke-width="1"/>
  <text x="196" y="277" text-anchor="middle" font-size="11" fill="#93c5fd">世界观设定 · 文风偏好</text>

  <!-- Skill badge -->
  <rect x="72" y="302" width="248" height="52" rx="8" fill="#1e3a5f" stroke="#3b82f6" stroke-width="1"/>
  <text x="196" y="322" text-anchor="middle" font-size="11" fill="#60a5fa" font-weight="bold">绑定 Skill</text>
  <text x="196" y="340" text-anchor="middle" font-size="11" fill="#7dd3fc">novel_question_skill  v7</text>
  <text x="196" y="356" text-anchor="middle" font-size="10" fill="#475569">问题生成 · 扩散 · 评分</text>

  <!-- ── 导演拍摄记忆 ── -->
  <rect x="452" y="96" width="296" height="272" rx="12" fill="#1a0e2e" stroke="#a855f7" stroke-width="1.5"/>
  <rect x="452" y="96" width="296" height="38" rx="12" fill="#a855f718"/>
  <rect x="452" y="120" width="296" height="14" fill="#1a0e2e"/>
  <text x="600" y="121" text-anchor="middle" font-size="13" font-weight="bold" fill="#a855f7">🎬 导演拍摄记忆</text>
  <text x="600" y="136" text-anchor="middle" font-size="11" fill="#475569">director-shooting-memory</text>

  <rect x="476" y="150" width="248" height="28" rx="6" fill="#1a0b2e" stroke="#3b1f5e" stroke-width="1"/>
  <text x="600" y="169" text-anchor="middle" font-size="11" fill="#d8b4fe">镜头语言 · 固定 vs 运动镜头</text>
  <rect x="476" y="186" width="248" height="28" rx="6" fill="#1a0b2e" stroke="#3b1f5e" stroke-width="1"/>
  <text x="600" y="205" text-anchor="middle" font-size="11" fill="#d8b4fe">场面调度 · 演员走位 · 权力关系</text>
  <rect x="476" y="222" width="248" height="28" rx="6" fill="#1a0b2e" stroke="#3b1f5e" stroke-width="1"/>
  <text x="600" y="241" text-anchor="middle" font-size="11" fill="#d8b4fe">灯光情绪 · 压迫感 · 节奏</text>
  <rect x="476" y="258" width="248" height="28" rx="6" fill="#1a0b2e" stroke="#3b1f5e" stroke-width="1"/>
  <text x="600" y="277" text-anchor="middle" font-size="11" fill="#d8b4fe">剪辑节奏 · 主观镜头 · 叙事</text>

  <rect x="476" y="302" width="248" height="52" rx="8" fill="#2d1b69" stroke="#a855f7" stroke-width="1"/>
  <text x="600" y="322" text-anchor="middle" font-size="11" fill="#c084fc" font-weight="bold">绑定 Skill</text>
  <text x="600" y="340" text-anchor="middle" font-size="11" fill="#d8b4fe">director_question_skill  v4</text>
  <text x="600" y="356" text-anchor="middle" font-size="10" fill="#475569">问题生成 · 镜头改写 · 评分</text>

  <!-- ── 分镜设计记忆 ── -->
  <rect x="856" y="96" width="296" height="272" rx="12" fill="#0e2420" stroke="#22c55e" stroke-width="1.5"/>
  <rect x="856" y="96" width="296" height="38" rx="12" fill="#22c55e18"/>
  <rect x="856" y="120" width="296" height="14" fill="#0e2420"/>
  <text x="1004" y="121" text-anchor="middle" font-size="13" font-weight="bold" fill="#22c55e">🎞 分镜设计记忆</text>
  <text x="1004" y="136" text-anchor="middle" font-size="11" fill="#475569">storyboard-memory</text>

  <rect x="880" y="150" width="248" height="28" rx="6" fill="#0c1e18" stroke="#14532d" stroke-width="1"/>
  <text x="1004" y="169" text-anchor="middle" font-size="11" fill="#86efac">画面构成 · 景别选择</text>
  <rect x="880" y="186" width="248" height="28" rx="6" fill="#0c1e18" stroke="#14532d" stroke-width="1"/>
  <text x="1004" y="205" text-anchor="middle" font-size="11" fill="#86efac">视角设计 · 主客观镜头切换</text>
  <rect x="880" y="222" width="248" height="28" rx="6" fill="#0c1e18" stroke="#14532d" stroke-width="1"/>
  <text x="1004" y="241" text-anchor="middle" font-size="11" fill="#86efac">动态描述 · 转场逻辑</text>
  <rect x="880" y="258" width="248" height="28" rx="6" fill="#0c1e18" stroke="#14532d" stroke-width="1"/>
  <text x="1004" y="277" text-anchor="middle" font-size="11" fill="#86efac">时长节奏 · 情绪曲线标注</text>

  <rect x="880" y="302" width="248" height="52" rx="8" fill="#14532d" stroke="#22c55e" stroke-width="1"/>
  <text x="1004" y="322" text-anchor="middle" font-size="11" fill="#4ade80" font-weight="bold">绑定 Skill</text>
  <text x="1004" y="340" text-anchor="middle" font-size="11" fill="#86efac">storyboard_question_skill  v3</text>
  <text x="1004" y="356" text-anchor="middle" font-size="10" fill="#475569">分镜问题生成 · 画面评估</text>

  <!-- ── 跨域任务触发：箭头汇聚到中央任务盒 ── -->
  <!-- 中央任务框 -->
  <rect x="370" y="412" width="460" height="58" rx="12" fill="#1e293b" stroke="#f59e0b" stroke-width="2"/>
  <text x="600" y="436" text-anchor="middle" font-size="13" font-weight="bold" fill="#fbbf24">🎯 跨领域任务示例</text>
  <text x="600" y="456" text-anchor="middle" font-size="12" fill="#d4d4d8">「把小说高潮改成适合拍摄的导演分镜方案」</text>

  <!-- 小说 → 任务 -->
  <line x1="196" y1="368" x2="196" y2="440" stroke="#3b82f6" stroke-width="1.5" stroke-dasharray="4,3"/>
  <line x1="196" y1="440" x2="370" y2="440" stroke="#3b82f6" stroke-width="1.5" marker-end="url(#arr-blue)"/>

  <!-- 导演 → 任务 -->
  <line x1="600" y1="368" x2="600" y2="412" stroke="#a855f7" stroke-width="1.5" marker-end="url(#arr-purple)"/>

  <!-- 分镜 → 任务 -->
  <line x1="1004" y1="368" x2="1004" y2="440" stroke="#22c55e" stroke-width="1.5" stroke-dasharray="4,3"/>
  <line x1="1004" y1="440" x2="830" y2="440" stroke="#22c55e" stroke-width="1.5" marker-end="url(#arr-green)"/>

  <!-- 任务 → 聚合结果 -->
  <line x1="600" y1="470" x2="600" y2="496" stroke="#f59e0b" stroke-width="1.5" marker-end="url(#arr-orange)"/>

  <!-- 聚合结果框 -->
  <rect x="370" y="500" width="460" height="54" rx="10" fill="#1c1408" stroke="#f59e0b" stroke-width="1.5"/>
  <text x="600" y="522" text-anchor="middle" font-size="12" fill="#fbbf24" font-weight="bold">多空间并行召回 → 结果聚合 → 冲突消解 → 主领域优先</text>
  <text x="600" y="542" text-anchor="middle" font-size="11" fill="#a16207">主领域：导演拍摄  ·  辅领域：小说创作 + 分镜设计  ·  约束：项目记忆</text>

  <!-- 分割线 -->
  <line x1="40" y1="576" x2="1160" y2="576" stroke="#1e293b" stroke-width="1.5" stroke-dasharray="6,4"/>

  <!-- =====================================================
       BOTTOM HALF: Skill 自迭代机制
       ===================================================== -->
  <text x="48" y="600" font-size="14" font-weight="bold" fill="#7dd3fc">§13 · Skill 自迭代机制</text>

  <!-- 飞轮四个节点，横向平铺 -->

  <!-- Step 1: 收集未命中 -->
  <rect x="48" y="618" width="230" height="72" rx="10" fill="#1e293b" stroke="#f97316" stroke-width="1.5"/>
  <text x="163" y="643" text-anchor="middle" font-size="22">📬</text>
  <text x="163" y="665" text-anchor="middle" font-size="12" font-weight="bold" fill="#fdba74">收集未命中问题</text>
  <text x="163" y="681" text-anchor="middle" font-size="11" fill="#64748b">用户真实问题 · 未被覆盖的 case</text>

  <!-- arrow 1→2 -->
  <line x1="278" y1="654" x2="318" y2="654" stroke="#f97316" stroke-width="1.5" marker-end="url(#arr-orange)"/>

  <!-- Step 2: 分析提问模式 -->
  <rect x="318" y="618" width="230" height="72" rx="10" fill="#1e293b" stroke="#f97316" stroke-width="1.5"/>
  <text x="433" y="643" text-anchor="middle" font-size="22">🔬</text>
  <text x="433" y="665" text-anchor="middle" font-size="12" font-weight="bold" fill="#fdba74">分析提问模式</text>
  <text x="433" y="681" text-anchor="middle" font-size="11" fill="#64748b">识别盲区 · 归类领域 · 发现规律</text>

  <!-- arrow 2→3 -->
  <line x1="548" y1="654" x2="588" y2="654" stroke="#f97316" stroke-width="1.5" marker-end="url(#arr-orange)"/>

  <!-- Step 3: 更新Skill -->
  <rect x="588" y="618" width="230" height="72" rx="10" fill="#1e293b" stroke="#f97316" stroke-width="1.5"/>
  <text x="703" y="643" text-anchor="middle" font-size="22">🛠️</text>
  <text x="703" y="665" text-anchor="middle" font-size="12" font-weight="bold" fill="#fdba74">更新问题生成 Skill</text>
  <text x="703" y="681" text-anchor="middle" font-size="11" fill="#64748b">新版本 · 灰度发布 · 评估对比</text>

  <!-- arrow 3→4 -->
  <line x1="818" y1="654" x2="858" y2="654" stroke="#f97316" stroke-width="1.5" marker-end="url(#arr-orange)"/>

  <!-- Step 4: 重新预处理 -->
  <rect x="858" y="618" width="230" height="72" rx="10" fill="#1e293b" stroke="#f97316" stroke-width="1.5"/>
  <text x="973" y="643" text-anchor="middle" font-size="22">🔄</text>
  <text x="973" y="665" text-anchor="middle" font-size="12" font-weight="bold" fill="#fdba74">重新预处理资料</text>
  <text x="973" y="681" text-anchor="middle" font-size="11" fill="#64748b">扩大问题覆盖 · 写入新记忆</text>

  <!-- 回流箭头：Step4 → Step1，底部弧线 -->
  <path d="M 973 690 Q 973 730 600 750 Q 227 730 163 690" fill="none" stroke="#f97316" stroke-width="1.5" stroke-dasharray="5,4" marker-end="url(#arr-orange)"/>
  <text x="600" y="746" text-anchor="middle" font-size="11" fill="#f97316">命中率提升 → 触发下一轮迭代</text>

  <!-- Skill 版本化说明栏 -->
  <rect x="48" y="770" width="1104" height="108" rx="12" fill="#0f172a" stroke="#334155" stroke-width="1.5"/>
  <text x="600" y="795" text-anchor="middle" font-size="13" font-weight="bold" fill="#e2e8f0">Skill 版本化 · 灰度升级流程</text>

  <!-- 5步灰度流程 -->
  <rect x="72" y="808" width="168" height="54" rx="8" fill="#1e293b" stroke="#3b82f6" stroke-width="1"/>
  <text x="156" y="830" text-anchor="middle" font-size="11" fill="#93c5fd" font-weight="bold">① 生成新版本</text>
  <text x="156" y="848" text-anchor="middle" font-size="10" fill="#475569">更新 prompt 模板</text>
  <text x="156" y="860" text-anchor="middle" font-size="10" fill="#475569">绑定评估配置</text>

  <line x1="240" y1="835" x2="260" y2="835" stroke="#475569" stroke-width="1.2" marker-end="url(#arr-gray)"/>

  <rect x="260" y="808" width="168" height="54" rx="8" fill="#1e293b" stroke="#06b6d4" stroke-width="1"/>
  <text x="344" y="830" text-anchor="middle" font-size="11" fill="#67e8f9" font-weight="bold">② 离线评估</text>
  <text x="344" y="848" text-anchor="middle" font-size="10" fill="#475569">测试集跑分</text>
  <text x="344" y="860" text-anchor="middle" font-size="10" fill="#475569">领域 benchmark</text>

  <line x1="428" y1="835" x2="448" y2="835" stroke="#475569" stroke-width="1.2" marker-end="url(#arr-gray)"/>

  <rect x="448" y="808" width="168" height="54" rx="8" fill="#1e293b" stroke="#f59e0b" stroke-width="1"/>
  <text x="532" y="830" text-anchor="middle" font-size="11" fill="#fbbf24" font-weight="bold">③ 小流量灰度</text>
  <text x="532" y="848" text-anchor="middle" font-size="10" fill="#475569">10% 项目试运行</text>
  <text x="532" y="860" text-anchor="middle" font-size="10" fill="#475569">新旧版本对比</text>

  <line x1="616" y1="835" x2="636" y2="835" stroke="#475569" stroke-width="1.2" marker-end="url(#arr-gray)"/>

  <rect x="636" y="808" width="168" height="54" rx="8" fill="#1e293b" stroke="#a855f7" stroke-width="1"/>
  <text x="720" y="830" text-anchor="middle" font-size="11" fill="#c4b5fd" font-weight="bold">④ 指标决策</text>
  <text x="720" y="848" text-anchor="middle" font-size="10" fill="#475569">采纳率 · 覆盖率</text>
  <text x="720" y="860" text-anchor="middle" font-size="10" fill="#475569">二次追问率对比</text>

  <line x1="804" y1="835" x2="824" y2="835" stroke="#475569" stroke-width="1.2" marker-end="url(#arr-gray)"/>

  <rect x="824" y="808" width="308" height="54" rx="8" fill="#1e293b" stroke="#22c55e" stroke-width="1"/>
  <text x="978" y="830" text-anchor="middle" font-size="11" fill="#86efac" font-weight="bold">⑤ 全量发布 / 继续观察 / 回滚</text>
  <text x="978" y="848" text-anchor="middle" font-size="10" fill="#475569">全量部署或版本回退</text>
  <text x="978" y="860" text-anchor="middle" font-size="10" fill="#475569">旧版本存档可随时恢复</text>

</svg>
